<svg width="103" height="40" viewBox="0 0 103 40" fill="none" xmlns="http://www.w3.org/2000/svg">
<g filter="url(#filter0_d_103_10)">
<path d="M94 0H35V32H94C96.7614 32 99 29.7614 99 27V5C99 2.23858 96.7614 0 94 0Z" fill="#0F1418"/>
<path d="M35 0H9C6.23858 0 4 2.23858 4 5V27C4 29.7614 6.23858 32 9 32H35V0Z" fill="#1DA1F2"/>
<path d="M27.6031 12.8184C27.35 12.734 27.0969 12.6543 26.8438 12.5793C26.8859 12.4059 26.9234 12.2324 26.9609 12.059C27.5375 9.26523 27.1578 7.01992 25.8781 6.2793C24.6453 5.57148 22.6344 6.30742 20.6 8.0793C20.3984 8.25273 20.2016 8.43555 20.0141 8.61836C19.8875 8.49648 19.7562 8.37461 19.625 8.25742C17.4922 6.36367 15.3547 5.5668 14.075 6.31211C12.8469 7.02461 12.4812 9.13867 12.9969 11.7824C13.0484 12.0449 13.1047 12.3027 13.1703 12.5652C12.8703 12.6496 12.575 12.7434 12.2984 12.8418C9.79531 13.709 8 15.0777 8 16.4934C8 17.9559 9.9125 19.423 12.5141 20.3137C12.725 20.384 12.9359 20.4543 13.1516 20.5152C13.0813 20.7965 13.0203 21.073 12.9641 21.359C12.4719 23.9605 12.8563 26.023 14.0844 26.7309C15.35 27.4621 17.4781 26.7121 19.55 24.898C19.7141 24.7527 19.8781 24.6027 20.0422 24.4434C20.2484 24.6449 20.4641 24.8371 20.6797 25.0246C22.6859 26.7496 24.6688 27.448 25.8922 26.7402C27.1578 26.009 27.5703 23.7918 27.0359 21.0918C26.9938 20.8855 26.9469 20.6746 26.8953 20.459C27.0453 20.4168 27.1906 20.3699 27.3359 20.323C30.0406 19.4277 32 17.9793 32 16.4934C32 15.073 30.1531 13.6949 27.6031 12.8184V12.8184ZM21.2609 8.83867C23.0047 7.31992 24.6313 6.72461 25.3719 7.15117C26.1641 7.60586 26.4687 9.44336 25.9719 11.8574C25.9391 12.0168 25.9063 12.1715 25.8641 12.3262C24.8234 12.0918 23.7687 11.923 22.7094 11.8293C22.1 10.9574 21.4344 10.123 20.7125 9.34023C20.8953 9.1668 21.0734 9.00273 21.2609 8.83867V8.83867ZM15.8375 18.9262C16.0766 19.334 16.3203 19.7418 16.5781 20.1402C15.8469 20.0605 15.1203 19.9434 14.4031 19.7887C14.6094 19.1137 14.8672 18.4152 15.1672 17.7027C15.3828 18.1152 15.6031 18.523 15.8375 18.9262V18.9262ZM14.4172 13.2871C15.0922 13.1371 15.8094 13.0152 16.5547 12.9215C16.3062 13.3105 16.0625 13.709 15.8328 14.1121C15.6031 14.5105 15.3781 14.9184 15.1672 15.3309C14.8719 14.6324 14.6234 13.948 14.4172 13.2871ZM15.7016 16.5168C16.0109 15.8699 16.3484 15.2371 16.7047 14.6137C17.0609 13.9902 17.4453 13.3855 17.8484 12.7902C18.5516 12.7387 19.2687 12.7105 20 12.7105C20.7313 12.7105 21.4531 12.7387 22.1516 12.7902C22.55 13.3809 22.9297 13.9855 23.2906 14.6043C23.6516 15.223 23.9891 15.8559 24.3078 16.498C23.9937 17.1449 23.6562 17.7824 23.2953 18.4105C22.9391 19.034 22.5594 19.6387 22.1609 20.2387C21.4625 20.2902 20.7359 20.3137 20 20.3137C19.2641 20.3137 18.5516 20.2902 17.8625 20.248C17.4547 19.6527 17.0703 19.0434 16.7094 18.4199C16.3484 17.7965 16.0156 17.1637 15.7016 16.5168ZM24.1672 18.9168C24.4062 18.5043 24.6313 18.0871 24.8516 17.6652C25.1516 18.3449 25.4141 19.034 25.6437 19.7418C24.9172 19.9059 24.1812 20.0324 23.4406 20.1168C23.6937 19.723 23.9328 19.3199 24.1672 18.9168ZM24.8422 15.3309C24.6219 14.9184 24.3969 14.5059 24.1625 14.1027C23.9328 13.7043 23.6938 13.3105 23.4453 12.9215C24.2 13.0152 24.9219 13.1418 25.5969 13.2965C25.3812 13.9902 25.1281 14.6652 24.8422 15.3309V15.3309ZM20.0094 10.0574C20.5016 10.5918 20.9656 11.1543 21.3969 11.7355C20.4687 11.6934 19.5359 11.6934 18.6078 11.7355C19.0672 11.1309 19.5406 10.5684 20.0094 10.0574ZM14.5719 7.18398C15.3594 6.72461 17.1078 7.38086 18.95 9.01211C19.0672 9.11523 19.1844 9.22773 19.3062 9.34023C18.5797 10.123 17.9094 10.9574 17.2953 11.8293C16.2359 11.923 15.1859 12.0871 14.1453 12.3168C14.0844 12.0777 14.0328 11.834 13.9812 11.5902C13.5406 9.32148 13.8312 7.61055 14.5719 7.18398V7.18398ZM13.4234 19.5402C13.2266 19.484 13.0344 19.423 12.8422 19.3574C11.8438 19.0434 10.7094 18.5465 9.88906 17.8949C9.41562 17.5668 9.09687 17.0605 9.00781 16.4934C9.00781 15.6355 10.4891 14.5387 12.6266 13.7934C12.8937 13.6996 13.1656 13.6152 13.4375 13.5355C13.7563 14.5527 14.1406 15.5512 14.5859 16.5168C14.1359 17.4965 13.7469 18.509 13.4234 19.5402V19.5402ZM18.8891 24.134C18.1156 24.8418 17.2203 25.4043 16.2453 25.7887C15.725 26.0371 15.125 26.0605 14.5906 25.8496C13.8453 25.4184 13.5359 23.7637 13.9578 21.5371C14.0094 21.2746 14.0656 21.0121 14.1313 20.7543C15.1813 20.9793 16.2406 21.134 17.3141 21.2137C17.9328 22.0902 18.6125 22.9293 19.3391 23.7168C19.1891 23.8621 19.0391 24.0027 18.8891 24.134ZM20.0375 22.9949C19.5594 22.4793 19.0812 21.9074 18.6172 21.2934C19.0672 21.3121 19.5312 21.3215 20 21.3215C20.4828 21.3215 20.9562 21.3121 21.425 21.2887C20.9937 21.884 20.5297 22.4512 20.0375 22.9949V22.9949ZM26.1641 24.4012C26.1219 24.973 25.8406 25.5074 25.3906 25.8684C24.6453 26.2996 23.0563 25.7371 21.3406 24.2652C21.1438 24.0965 20.9469 23.9137 20.7453 23.7262C21.4625 22.934 22.1234 22.0949 22.7234 21.2137C23.7969 21.1246 24.8656 20.9605 25.9203 20.7215C25.9672 20.9137 26.0094 21.1059 26.0469 21.2934C26.2766 22.3059 26.3141 23.3605 26.1641 24.4012V24.4012ZM27.0172 19.3621C26.8859 19.4043 26.7547 19.4465 26.6188 19.484C26.2906 18.4621 25.8875 17.4637 25.4234 16.4934C25.8734 15.5371 26.2531 14.5527 26.5719 13.5449C26.8156 13.6152 27.05 13.6902 27.275 13.7652C29.4594 14.5152 30.9922 15.6309 30.9922 16.484C30.9922 17.4027 29.3563 18.5887 27.0172 19.3621ZM20 18.659C21.1859 18.659 22.1469 17.698 22.1469 16.5121C22.1469 15.3262 21.1859 14.3652 20 14.3652C18.8141 14.3652 17.8531 15.3262 17.8531 16.5121C17.8531 17.698 18.8141 18.659 20 18.659Z" fill="white"/>
<path d="M57.3236 22H54.6063L52.973 19.2974C52.8509 19.0923 52.7337 18.9092 52.6214 18.748C52.5091 18.5869 52.3944 18.4502 52.2772 18.3379C52.1649 18.2207 52.0453 18.1328 51.9183 18.0742C51.7962 18.0107 51.662 17.979 51.5155 17.979H50.8783V22H48.5126V11.4971H52.2626C54.8114 11.4971 56.0858 12.4492 56.0858 14.3535C56.0858 14.7197 56.0296 15.0591 55.9173 15.3716C55.805 15.6792 55.6463 15.9575 55.4413 16.2065C55.2362 16.4556 54.9872 16.6704 54.6942 16.8511C54.4061 17.0317 54.0838 17.1733 53.7274 17.2759V17.3052C53.8837 17.354 54.035 17.4346 54.1815 17.5469C54.328 17.6543 54.4696 17.7812 54.6063 17.9277C54.743 18.0742 54.8724 18.2329 54.9945 18.4038C55.1214 18.5698 55.2362 18.7334 55.3387 18.8945L57.3236 22ZM50.8783 13.2695V16.1919H51.9037C52.4115 16.1919 52.8192 16.0454 53.1268 15.7524C53.4393 15.4546 53.5956 15.0859 53.5956 14.6465C53.5956 13.7285 53.0462 13.2695 51.9476 13.2695H50.8783ZM64.8864 18.9092H59.9938C60.072 19.998 60.758 20.5425 62.0519 20.5425C62.8771 20.5425 63.6022 20.3472 64.2272 19.9565V21.6265C63.5339 21.9976 62.633 22.1831 61.5246 22.1831C60.3137 22.1831 59.3737 21.8486 58.7048 21.1797C58.0358 20.5059 57.7013 19.5684 57.7013 18.3672C57.7013 17.1221 58.0627 16.1357 58.7853 15.4082C59.508 14.6807 60.3967 14.3169 61.4513 14.3169C62.5451 14.3169 63.3898 14.6416 63.9855 15.291C64.5861 15.9404 64.8864 16.8218 64.8864 17.9351V18.9092ZM62.7404 17.4883C62.7404 16.4141 62.3058 15.877 61.4367 15.877C61.0656 15.877 60.7433 16.0308 60.4699 16.3384C60.2013 16.646 60.0378 17.0293 59.9792 17.4883H62.7404ZM72.6836 22H70.4937V20.9233H70.4644C69.9614 21.7632 69.2168 22.1831 68.2305 22.1831C67.5029 22.1831 66.9292 21.978 66.5093 21.5679C66.0942 21.1528 65.8867 20.6011 65.8867 19.9126C65.8867 18.4575 66.7485 17.6177 68.4722 17.3931L70.5083 17.1221C70.5083 16.3018 70.064 15.8916 69.1753 15.8916C68.2817 15.8916 67.4321 16.1577 66.6265 16.6899V14.9468C66.9487 14.7808 67.3882 14.6343 67.9448 14.5073C68.5063 14.3804 69.0166 14.3169 69.4756 14.3169C71.6143 14.3169 72.6836 15.3838 72.6836 17.5176V22ZM70.5083 18.9531V18.4478L69.146 18.6235C68.394 18.7212 68.0181 19.0605 68.0181 19.6416C68.0181 19.9053 68.1084 20.1226 68.2891 20.2935C68.4746 20.4595 68.7236 20.5425 69.0361 20.5425C69.4707 20.5425 69.8247 20.3936 70.0981 20.0957C70.3716 19.793 70.5083 19.4121 70.5083 18.9531ZM80.3782 21.729C79.8558 22.0317 79.1014 22.1831 78.1151 22.1831C76.9627 22.1831 76.0301 21.834 75.3172 21.1357C74.6043 20.4375 74.2479 19.5366 74.2479 18.4331C74.2479 17.1587 74.6287 16.1553 75.3904 15.4229C76.1571 14.6855 77.18 14.3169 78.4593 14.3169C79.3431 14.3169 79.9827 14.4341 80.3782 14.6685V16.6313C79.8948 16.27 79.3553 16.0894 78.7596 16.0894C78.0955 16.0894 77.5682 16.2847 77.1776 16.6753C76.7918 17.061 76.5989 17.5957 76.5989 18.2793C76.5989 18.9434 76.7845 19.4658 77.1556 19.8467C77.5267 20.2227 78.0369 20.4106 78.6863 20.4106C79.2625 20.4106 79.8265 20.23 80.3782 19.8687V21.729ZM86.6154 21.9121C86.2736 22.0928 85.7584 22.1831 85.07 22.1831C83.4391 22.1831 82.6237 21.3359 82.6237 19.6416V16.2065H81.4079V14.5H82.6237V12.8813L84.9308 12.2222V14.5H86.6154V16.2065H84.9308V19.2388C84.9308 20.02 85.2409 20.4106 85.861 20.4106C86.1051 20.4106 86.3566 20.3398 86.6154 20.1982V21.9121Z" fill="white"/>
<path d="M94 0H9C6.23858 0 4 2.23858 4 5V27C4 29.7614 6.23857 32 9 32H94C96.7614 32 99 29.7614 99 27V5C99 2.23858 96.7614 0 94 0Z" fill="url(#paint0_linear_103_10)"/>
</g>
<defs>
<filter id="filter0_d_103_10" x="0" y="0" width="103" height="40" filterUnits="userSpaceOnUse" color-interpolation-filters="sRGB">
<feFlood flood-opacity="0" result="BackgroundImageFix"/>
<feColorMatrix in="SourceAlpha" type="matrix" values="0 0 0 0 0 0 0 0 0 0 0 0 0 0 0 0 0 0 127 0" result="hardAlpha"/>
<feOffset dy="4"/>
<feGaussianBlur stdDeviation="2"/>
<feComposite in2="hardAlpha" operator="out"/>
<feColorMatrix type="matrix" values="0 0 0 0 0 0 0 0 0 0 0 0 0 0 0 0 0 0 0.25 0"/>
<feBlend mode="normal" in2="BackgroundImageFix" result="effect1_dropShadow_103_10"/>
<feBlend mode="normal" in="SourceGraphic" in2="effect1_dropShadow_103_10" result="shape"/>
</filter>
<linearGradient id="paint0_linear_103_10" x1="4" y1="0" x2="4" y2="32" gradientUnits="userSpaceOnUse">
<stop stop-color="#BBBBBB" stop-opacity="0.1"/>
<stop offset="1" stop-opacity="0.1"/>
</linearGradient>
</defs>
</svg>
